<svg xmlns:xlink="http://www.w3.org/1999/xlink" xmlns="http://www.w3.org/2000/svg" viewBox="0 0 96 96" fill="none" class="css-1udqo2t" width="96"  height="96" ><g clip-path="url(#failed-b96_svg__clip0)" fill="#981924" data-darkreader-inline-fill="" style="--darkreader-inline-fill:#981924;"><path d="M71 25c-12.69-12.72-33.29-12.75-46.02-.06-12.73 12.69-12.75 33.29-.06 46.02 12.69 12.73 33.29 12.75 46.02.06 6.12-6.1 9.56-14.38 9.56-23.02.01-8.62-3.41-16.9-9.5-23zm-8.28 35.59l-2.12 2.12L48 50.11 35.4 62.7l-2.12-2.12L45.88 48l-12.6-12.6 2.12-2.13L48 45.87l12.6-12.6 2.12 2.12L50.12 48l12.6 12.59zM46.46 2.5l.08 2.5h2.41V2.5c-.79-.03-1.65-.03-2.49 0zm5.6.16l-.22 2.49c.79.07 1.6.16 2.39.28L54.59 3c-.84-.17-1.69-.27-2.53-.34zm-8.65 0c-.84.08-1.69.19-2.53.32l.39 2.47c.79-.12 1.59-.23 2.39-.31l-.25-2.48zm14.19.84l-.53 2.44c.78.17 1.57.36 2.34.57l.66-2.41c-.81-.22-1.65-.42-2.47-.6zm-19.72.11c-.82.19-1.65.4-2.46.64l.69 2.4c.77-.22 1.55-.43 2.33-.6l-.56-2.44zM63 5l-.83 2.36c.76.26 1.51.55 2.25.85l1-2.3C64.59 5.6 63.78 5.29 63 5zm-30.48.17c-.79.29-1.58.6-2.37.94l1 2.29c.74-.31 1.49-.61 2.24-.88l-.87-2.35zm35.64 2L67 9.43c.72.35 1.43.73 2.13 1.13l1.23-2.18c-.69-.38-1.45-.82-2.21-1.19l.01-.02zm-40.77.23c-.75.39-1.5.8-2.24 1.22l1.25 2.18c.69-.4 1.4-.79 2.11-1.15L27.39 7.4zM73 10l-1.38 2.09c.67.44 1.33.9 2 1.38l1.49-2c-.69-.53-1.4-1.03-2.11-1.47zm-50.45.29c-.7.47-1.4 1-2.07 1.48l1.51 2c.64-.48 1.3-.95 2-1.4l-1.44-2.08zm54.93 3.07l-1.62 1.91c.61.51 1.21 1.05 1.79 1.6L79.38 15c-.61-.54-1.25-1.11-1.89-1.66l-.01.02zm-59.37.34c-.64.55-1.27 1.13-1.88 1.72L18 17.2c.57-.56 1.17-1.11 1.77-1.63l-1.66-1.87zm63.4 3.55l-1.84 1.69c.54.59 1.07 1.2 1.57 1.82l1.94-1.59a27.84 27.84 0 00-1.66-1.94l-.01.02zm-67.39.38c-.57.63-1.12 1.28-1.65 1.94l1.95 1.56c.5-.62 1-1.24 1.56-1.83l-1.86-1.67zm70.91 4L83 23c.46.65.91 1.32 1.34 2l2.11-1.34C86 23 85.53 22.27 85 21.58l.03.05zM10.65 22c-.48.69-1 1.41-1.4 2.13l2.13 1.31c.42-.68.87-1.36 1.32-2L10.65 22zM88 26.33l-2.2 1.19c.38.7.75 1.42 1.09 2.15l2.26-1.07c-.35-.76-.74-1.53-1.15-2.27zm-80.27.45c-.4.75-.78 1.52-1.13 2.29l2.28 1c.33-.73.69-1.46 1.06-2.16l-2.21-1.13zm82.63 4.63l-2.36.91c.29.74.57 1.5.82 2.26l2.37-.78c-.19-.8-.51-1.61-.82-2.39h-.01zm-84.93.48c-.3.79-.59 1.6-.84 2.41l2.39.75c.24-.76.5-1.53.78-2.28l-2.33-.88zm86.65 4.84l-2.43.62c.2.77.38 1.56.53 2.35l2.46-.48c-.16-.83-.35-1.67-.56-2.49zm-88.31.51c-.2.83-.37 1.67-.53 2.5l2.46.45c.15-.79.32-1.58.5-2.36l-2.43-.59zm89.35 5l-2.48.32c.1.79.18 1.6.24 2.39l2.49-.17c-.05-.85-.13-1.71-.25-2.54zm-90.32.53c-.1.84-.17 1.69-.22 2.54l2.49.14c.05-.8.12-1.6.21-2.39l-2.48-.29zM91 47.83V48c0 .8 0 1.61-.07 2.41l2.5.13c0-.84.07-1.69.07-2.55v-.13l-2.5-.03zm-86 .5H2.5c0 .85 0 1.71.09 2.55l2.5-.16c-.04-.78-.09-1.58-.09-2.39zm85.66 4.92c-.1.8-.22 1.6-.36 2.39l2.46.44c.15-.83.28-1.68.38-2.52l-2.48-.31zm-85.29.36l-2.48.33c.11.84.24 1.68.4 2.51L5.76 56c-.15-.79-.28-1.59-.39-2.39zm84.33 4.85c-.19.77-.41 1.55-.65 2.32l2.39.74c.25-.81.48-1.63.69-2.45l-2.43-.61zm-83.31.35L4 59.44c.21.81.45 1.64.71 2.44l2.38-.76c-.28-.76-.5-1.54-.7-2.31zm81.71 4.7c-.29.74-.6 1.49-.93 2.22l2.28 1c.34-.78.68-1.57 1-2.35l-2.35-.87zM8 63.84l-2.32.92c.31.78.65 1.57 1 2.33L9 66c-.36-.68-.68-1.43-1-2.16zm77.86 4.48c-.38.7-.78 1.4-1.2 2.09l2.14 1.3c.44-.73.86-1.47 1.26-2.21l-2.2-1.18zm-75.61.3l-2.19 1.2c.4.74.83 1.48 1.28 2.19l2.12-1.32c-.39-.69-.8-1.37-1.18-2.07h-.03zm72.83 4.2c-.46.65-1 1.3-1.45 1.93l2 1.55c.53-.66 1-1.35 1.53-2l-2.08-1.48zm-70 .27l-2 1.46c.49.69 1 1.37 1.54 2L14.56 75c-.51-.62-1-1.26-1.46-1.91h-.02zM79.79 77c-.45.5-.92 1-1.39 1.47l-.27.27 1.75 1.78.28-.28c.51-.51 1-1 1.49-1.56L79.79 77zm-63.34.24l-1.84 1.69c.57.62 1.17 1.24 1.78 1.83l1.74-1.8-1.68-1.77v.05zM76 80.64c-.61.52-1.24 1-1.87 1.51l1.52 2c.67-.52 1.34-1.06 2-1.61L76 80.64zm-55.73.21l-1.62 1.91c.65.54 1.31 1.08 2 1.59l1.51-2c-.65-.48-1.28-.99-1.89-1.5zm51.51 3c-.67.44-1.35.87-2 1.28L71 87.26c.73-.43 1.46-.88 2.16-1.35l-1.38-2.06zM24.51 84l-1.37 2.09c.71.46 1.44.91 2.17 1.34l1.25-2.17c-.69-.38-1.38-.8-2.05-1.26zm42.69 2.49c-.71.35-1.45.7-2.18 1l1 2.3c.78-.34 1.55-.7 2.31-1.08l-1.13-2.22zm-38.09.15L28 88.89c.76.37 1.54.73 2.32 1.06l1-2.31c-.75-.31-1.49-.64-2.21-1zm33.22 1.92c-.75.27-1.52.51-2.29.74l.71 2.4c.8-.24 1.62-.5 2.42-.79l-.84-2.35zM34 88.68L33.18 91c.81.28 1.62.53 2.43.76l.69-2.4c-.77-.18-1.54-.42-2.3-.68zM57.25 90c-.78.18-1.58.33-2.36.45l.39 2.47c.84-.13 1.68-.29 2.51-.48L57.25 90zm-18.15.08l-.52 2.45c.83.17 1.67.32 2.51.45l.37-2.47c-.78-.11-1.58-.25-2.36-.43zm12.9.75c-.79.07-1.6.13-2.4.16l.1 2.49c.84 0 1.7-.08 2.54-.16L52 90.83zm-7.69 0l-.21 2.49c.84.07 1.7.12 2.54.15l.07-2.5c-.77.03-1.58-.04-2.38-.11l-.02-.03z" fill="#981924"></path></g><defs><clipPath id="failed-b96_svg__clip0"><path fill="#fff" d="M0 0h96v96H0z" data-darkreader-inline-fill="" style="--darkreader-inline-fill:#181a1b;"></path></clipPath></defs></svg>