<svg xmlns:xlink="http://www.w3.org/1999/xlink" xmlns="http://www.w3.org/2000/svg" viewBox="0 0 96 96" fill="none" class="css-1qpk116" width="96"  height="96" ><path d="M84 12H34L12 34v50h72V12z" fill="url(&quot;#note-light_svg__paint0_linear&quot;)"></path><path d="M12 34h22V12L12 34z" fill="#E6E8EA"></path><path d="M61 23l12 12-39 39H22V62l39-39z" fill="url(&quot;#note-light_svg__paint1_linear&quot;)"></path><path d="M75.829 32.172L73 35 61.015 23.015l2.828-2.829L75.83 32.172zM22 66v8h8l-8-8zM54 68l6 6 6-6-6-6-6 6zM18 48l3 3 3-3-3-3-3 3zM31 91l3 3 3-3-3-3-3 3z" fill="#E6E8EA"></path><defs><linearGradient id="note-light_svg__paint0_linear" x1="48" y1="12" x2="48" y2="84" gradientUnits="userSpaceOnUse"><stop stop-color="#76808F"></stop><stop offset="0.698" stop-color="#929AA5"></stop></linearGradient><linearGradient id="note-light_svg__paint1_linear" x1="47.5" y1="74" x2="47.5" y2="23" gradientUnits="userSpaceOnUse"><stop stop-color="#F0B90B"></stop><stop offset="1" stop-color="#F8D33A"></stop></linearGradient><linearGradient id="note-light_svg__paint0_linear" x1="48" y1="12" x2="48" y2="84" gradientUnits="userSpaceOnUse"><stop stop-color="#76808F"></stop><stop offset="0.698" stop-color="#929AA5"></stop></linearGradient><linearGradient id="note-light_svg__paint1_linear" x1="47.5" y1="74" x2="47.5" y2="23" gradientUnits="userSpaceOnUse"><stop stop-color="#F0B90B"></stop><stop offset="1" stop-color="#F8D33A"></stop></linearGradient></defs></svg>