<svg xmlns:xlink="http://www.w3.org/1999/xlink" xmlns="http://www.w3.org/2000/svg" viewBox="0 0 24 24" fill="none" class="css-piqqm6" width="24"  height="24" ><path d="M18.508 12.867a5.287 5.287 0 01-3.048.977 5.256 5.256 0 01-5.328-5.18 5.322 5.322 0 011.009-3.162L9.638 4a8.2 8.2 0 00-5.223 10.36c1.419 4.307 6.053 6.65 10.362 5.22A8.191 8.191 0 0020 14.37l-1.492-1.503zm-6.285 5.022h-.02a6.106 6.106 0 01-6.085-6.104 6.125 6.125 0 012.091-4.58 6.518 6.518 0 00-.137 1.355 7.35 7.35 0 007.357 7.354c.451 0 .893-.042 1.334-.126a6.124 6.124 0 01-4.54 2.101z" fill="#EAECEF"></path></svg>