<svg xmlns:xlink="http://www.w3.org/1999/xlink" xmlns="http://www.w3.org/2000/svg" viewBox="0 0 24 24" fill="none" class="css-14nsevo" width="24"  height="24" ><path d="M11 4V1h2v3h-2zM4 13H1v-2h3v2zM11 20v3h2v-3h-2zM23 13h-3v-2h3v2zM5.636 7.05L3.515 4.93l1.414-1.414L7.05 5.636 5.636 7.05zM7.05 18.364l-2.12 2.121-1.415-1.414 2.121-2.121 1.414 1.414zM16.95 18.364l2.121 2.121 1.414-1.414-2.12-2.121-1.415 1.414zM20.485 4.929l-2.12 2.121-1.415-1.414 2.121-2.121 1.414 1.414z" fill="#EAECEF"></path><path fill-rule="evenodd" clip-rule="evenodd" d="M12 6a6 6 0 100 12 6 6 0 000-12zm-4 6a4 4 0 118 0 4 4 0 01-8 0z" fill="#EAECEF"></path></svg>