<svg xmlns:xlink="http://www.w3.org/1999/xlink" xmlns="http://www.w3.org/2000/svg" viewBox="0 0 24 24" fill="none" class="css-cs5dcx" width="24"  height="24" ><path d="M11.99 8.63a3.352 3.352 0 00-3.347 3.344 3.352 3.352 0 003.347 3.345 3.341 3.341 0 003.346-3.324c.01-1.853-1.493-3.355-3.346-3.365zm.02 4.63a1.278 1.278 0 01-1.297-1.265c-.02-.7.546-1.287 1.246-1.307h.03a1.287 1.287 0 11.02 2.573zM6.604 10.966H3v2.058h3.604v-2.058zM21 10.966h-3.604v2.058H21v-2.058zM7.46 15.077l-2.55 2.547 1.457 1.455 2.549-2.547-1.457-1.455zM17.653 4.897l-2.549 2.547 1.457 1.455 2.548-2.547-1.456-1.455zM13.03 17.398h-2.06V21h2.06v-3.602zM13.03 3h-2.06v3.602h2.06V3zM16.541 15.09l-1.456 1.455 2.549 2.547 1.456-1.455-2.549-2.547zM6.366 4.907L4.909 6.362 7.458 8.91l1.456-1.455-2.548-2.547z" fill="#F0B90B"></path></svg>