<svg xmlns:xlink="http://www.w3.org/1999/xlink" xmlns="http://www.w3.org/2000/svg" viewBox="0 0 16 16" fill="none" class="css-3kwgah" width="24"  height="24" ><path d="M7.902 6.608c-.78 0-1.414.624-1.414 1.392 0 .768.634 1.392 1.414 1.392.78 0 1.415-.624 1.415-1.392 0-.768-.634-1.392-1.415-1.392zM14 8.528v-.96h-1.805a4.258 4.258 0 00-.878-2.16l1.317-1.296-.683-.672-1.268 1.248a4.284 4.284 0 00-2.195-.912V2h-.976v1.776c-.83.096-1.56.432-2.195.912L4.05 3.44l-.683.672 1.317 1.296a3.738 3.738 0 00-.878 2.16H2v.96h1.805c.097.816.39 1.536.878 2.112l-1.317 1.296.683.672 1.268-1.248c.585.48 1.366.816 2.195.864V14h.976v-1.776a4.406 4.406 0 002.195-.864l1.268 1.248.683-.672-1.317-1.296c.488-.576.83-1.344.878-2.112H14zm-6.098 2.736c-1.804 0-3.317-1.44-3.317-3.264 0-1.824 1.464-3.264 3.317-3.264 1.854 0 3.317 1.44 3.317 3.264 0 1.824-1.463 3.264-3.317 3.264z" fill="#FFFFFF" stroke="#FFFFFF" stroke-width="0.3px"></path></svg>