<svg xmlns:xlink="http://www.w3.org/1999/xlink" xmlns="http://www.w3.org/2000/svg" viewBox="0 0 96 96" fill="none" class="css-1udqo2t" width="96"  height="96" ><g clip-path="url(#wallet-warning-b96_svg__clip0)"><path d="M88.78 77.44c-7.51 7.51-19.67 7.51-27.18 0-7.51-7.51-7.51-19.67 0-27.18 7.51-7.51 19.67-7.51 27.18 0 7.51 7.5 7.51 19.66.01 27.17l-.01.01z" fill="url(&quot;#wallet-warning-b96_svg__paint0_linear&quot;)"></path><path d="M76.67 72.29h-2.99v2.99h2.99v-2.99zM76.67 52.41h-2.99V69.3h2.99V52.41zM52.62 80.49h-2.4V78h2.4v2.49zm-5.29 0h-2.4V78h2.4v2.49zm-5.28 0h-2.4V78h2.4v2.49zm-5.29 0h-2.4V78h2.4v2.49zm-5.28 0h-2.4V78h2.4v2.49zm-5.29 0h-2.4V78h2.4v2.49zm-5.28 0H18.5V78h2.41v2.49zm-5.29 0h-2.4V78h2.4v2.49zM10.34 77.99h-2.5v2.5h2.5v-2.5zM10.34 74.9h-2.5v-2.58h2.5v2.58zm0-5.68h-2.5v-2.57h2.5v2.57zM21 69.18h-2.42v-2.5H21v2.5zm-5.33 0h-2.42v-2.5h2.42v2.5zM26.41 66.59h-2.5v2.5h2.5v-2.5zM10.3 41.46H7.8v-2.4h2.5v2.4zm0-5.28H7.8v-2.4h2.5v2.4zM10.3 28.4H7.8v2.5h2.5v-2.5zM82.73 30.9H80.2v-2.5h2.53v2.5zm-5.57 0h-2.53v-2.5h2.53v2.5zm-5.57 0h-2.53v-2.5h2.53v2.5zm-5.59 0h-2.52v-2.5H66v2.5zm-5.57 0h-2.52v-2.5h2.54l-.02 2.5zm-5.58 0h-2.51v-2.5h2.53l-.02 2.5zm-5.57 0h-2.51v-2.5h2.53l-.02 2.5zm-5.57 0H41.2v-2.5h2.53l-.02 2.5zm-5.57 0h-2.51v-2.5h2.53l-.02 2.5zm-5.57 0h-2.52v-2.5h2.54l-.02 2.5zm-5.57 0h-2.52v-2.5H27v2.5zm-5.57 0h-2.52v-2.5h2.53l-.01 2.5zm-5.57 0h-2.52v-2.5h2.53l-.01 2.5zm70 0l-.2-2.49c.7-.04 1.38-.23 2-.55l1.14 2.22c-.91.46-1.91.73-2.93.79l-.01.03zm5.62-3.16l-2-1.47c.41-.55.7-1.18.85-1.84l2.43.58c-.24.98-.67 1.89-1.27 2.7l-.01.03zM90.31 22c-.16-.66-.45-1.29-.85-1.84l2-1.47c.6.82 1.02 1.75 1.26 2.73l-2.41.58zm-2.7-3.42c-.62-.31-1.3-.5-2-.55l.2-2.49c1.01.08 1.99.36 2.89.82l-1.09 2.22zM82.72 18h-2.53v-2.5h2.53V18zm-5.57 0h-2.53v-2.5h2.53V18zm-5.57 0h-2.53v-2.5h2.53V18zM66 18h-2.53v-2.5H66V18zm-5.57 0H57.9v-2.5h2.54l-.01 2.5zm-5.58 0h-2.52v-2.5h2.53l-.01 2.5zm-5.57 0h-2.52v-2.5h2.53l-.01 2.5zm-5.57 0h-2.52v-2.5h2.53l-.01 2.5zm-5.57 0h-2.53v-2.5h2.54l-.01 2.5zm-5.57 0H30v-2.5h2.54l.03 2.5zM27 18h-2.53v-2.5H27V18zm-5.57 0H18.9v-2.5h2.53V18zm-5.57 0h-2.53v-2.5h2.53V18zM10.25 15.49H7.8v2.5h2.45v-2.5zM92.95 44.24h-2.5v2.5h2.5v-2.5zM92.95 38.74h-2.5v2.5h2.5v-2.5zM92.95 33.24h-2.5v2.5h2.5v-2.5zM19.707 51.83l-2.114 2.114 2.114 2.114 2.114-2.114-2.114-2.114zM4.88 44.34h-2.5v2.5h2.5v-2.5zM26.41 39.01h-2.5v2.5h2.5v-2.5zM31.76 39.01h-2.5v2.5h2.5v-2.5zM20.99 39.01h-2.43v2.5h2.43v-2.5zM37.11 61.05h-2.5v2.5h2.5v-2.5zM37.11 66.59h-2.5v2.5h2.5v-2.5zM31.76 66.59h-2.5v2.5h2.5v-2.5zM37.11 58h-2.5v-2.53h2.5V58zm0-5.58h-2.5v-2.54h2.5v2.54zM37.11 44.34h-2.5v2.5h2.5v-2.5zM37.11 39.01h-2.5v2.5h2.5v-2.5zM15.65 39.01h-2.43v2.5h2.43v-2.5zM4.88 39.01h-2.5v2.5h2.5v-2.5zM4.88 58h-2.5v-2.53h2.5V58zm0-5.58h-2.5v-2.54h2.5v2.54zM4.88 61.05h-2.5v2.5h2.5v-2.5zM4.88 66.68h-2.5v2.5h2.5v-2.5z" fill="#212833"></path></g><defs><linearGradient id="wallet-warning-b96_svg__paint0_linear" x1="61.599" y1="77.44" x2="88.78" y2="50.26" gradientUnits="userSpaceOnUse"><stop stop-color="#F0B90B"></stop><stop offset="0.28" stop-color="#F1BC0F"></stop><stop offset="0.569" stop-color="#F4C41C"></stop><stop offset="0.862" stop-color="#F8D230"></stop><stop offset="0.993" stop-color="#FBDA3C"></stop></linearGradient><clipPath id="wallet-warning-b96_svg__clip0"><path fill="#fff" d="M0 0h96v96H0z"></path></clipPath><linearGradient id="wallet-warning-b96_svg__paint0_linear" x1="61.599" y1="77.44" x2="88.78" y2="50.26" gradientUnits="userSpaceOnUse"><stop stop-color="#F0B90B"></stop><stop offset="0.28" stop-color="#F1BC0F"></stop><stop offset="0.569" stop-color="#F4C41C"></stop><stop offset="0.862" stop-color="#F8D230"></stop><stop offset="0.993" stop-color="#FBDA3C"></stop></linearGradient></defs></svg>