<svg xmlns:xlink="http://www.w3.org/1999/xlink" xmlns="http://www.w3.org/2000/svg" fill="currentColor" class="css-6px2js" width="24"  height="24" ><defs><symbol viewBox="0 0 24 24" id="account-f"><g><path fill-rule="evenodd" clip-rule="evenodd" d="M15.75 9.75a3.75 3.75 0 1 1-7.5 0 3.75 3.75 0 0 1 7.5 0zm-2 0a1.75 1.75 0 1 1-3.5 0 1.75 1.75 0 0 1 3.5 0z" fill="currentColor"></path><path fill-rule="evenodd" clip-rule="evenodd" d="M22 12c0-5.523-4.477-10-10-10S2 6.477 2 12s4.477 10 10 10 10-4.477 10-10zm-2 0a8 8 0 1 0-14.193 5.065A3.5 3.5 0 0 1 9 15h6a3.5 3.5 0 0 1 3.193 2.065A7.967 7.967 0 0 0 20 12zm-3.5 6.615V18.5A1.5 1.5 0 0 0 15 17H9a1.5 1.5 0 0 0-1.5 1.5v.115A7.962 7.962 0 0 0 12 20c1.669 0 3.218-.51 4.5-1.385z" fill="currentColor"></path></g></symbol></defs><use xlink:href="#account-f" fill="#EAECEF"></use></svg>