<svg xmlns:xlink="http://www.w3.org/1999/xlink" xmlns="http://www.w3.org/2000/svg" fill="#848e9c" class="css-6px2js" width="24"  height="24" ><defs><symbol viewBox="0 0 24 24" id="user-f"><g><path fill-rule="evenodd" clip-rule="evenodd" d="M12 11a4.5 4.5 0 1 0 0-9 4.5 4.5 0 0 0 0 9zm2.5-4.5a2.5 2.5 0 1 1-5 0 2.5 2.5 0 0 1 5 0z" fill="#848e9c"></path><path fill-rule="evenodd" clip-rule="evenodd" d="M3 17a4 4 0 0 1 4-4h10a4 4 0 0 1 4 4v4H3v-4zm16 0v2H5v-2a2 2 0 0 1 2-2h10a2 2 0 0 1 2 2z" fill="#848e9c"></path></g></symbol></defs><use xlink:href="#user-f" fill="#848e9c"></use></svg>