<?xml version="1.0" standalone="no"?>
<!DOCTYPE svg PUBLIC "-//W3C//DTD SVG 1.1//EN" "http://www.w3.org/Graphics/SVG/1.1/DTD/svg11.dtd" >
<svg xmlns="http://www.w3.org/2000/svg">
<metadata>Generated by IcoMoon</metadata>
<defs>
<font id="icomoon" horiz-adv-x="1024">
<font-face units-per-em="1024" ascent="960" descent="-64" />
<missing-glyph horiz-adv-x="1024" />
<glyph unicode="&#x20;" horiz-adv-x="512" d="" />
<glyph unicode="&#xe900;" d="M426.667 64v768h469.333v-768h-469.333z" />
<glyph unicode="&#xe901;" d="M128 490.667v-85.333h426.667v-213.333l256 256-256 256v-213.333h-426.667z" />
<glyph unicode="&#xe902;" glyph-name="android" d="M748.501 358.4c-23.464 0.073-42.466 19.074-42.539 42.532v0.007c0.073 23.464 19.074 42.466 42.532 42.539h0.007c23.464-0.073 42.466-19.074 42.539-42.532v-0.007c-0.073-23.464-19.074-42.466-42.532-42.539h-0.007zM277.035 358.4c-23.446 0.097-42.424 19.089-42.496 42.532v0.007c0.073 23.464 19.074 42.466 42.532 42.539h0.007c23.464-0.073 42.466-19.074 42.539-42.532v-0.007c0-0.051 0-0.111 0-0.171 0-23.399-18.969-42.368-42.368-42.368-0.060 0-0.12 0-0.18 0h0.009zM763.733 615.168l85.077 147.541c1.532 2.543 2.438 5.614 2.438 8.896 0 6.557-3.616 12.269-8.962 15.251l-0.089 0.045c-2.539 1.525-5.603 2.427-8.878 2.427-6.569 0-12.291-3.63-15.268-8.994l-0.045-0.089-86.272-149.461c-63.819 29.591-138.518 46.852-217.248 46.852-0.724 0-1.447-0.001-2.171-0.004h0.112c-79.232 0-153.344-16.811-219.307-46.848l-86.272 149.461c-3.148 5.384-8.901 8.944-15.485 8.944-3.215 0-6.231-0.848-8.838-2.334l0.088 0.046c-5.356-3.155-8.893-8.892-8.893-15.456 0-3.209 0.846-6.221 2.326-8.824l-0.046 0.088 85.077-147.541c-146.347-79.616-246.229-227.883-261.077-402.688h1024c-13.653 175.232-113.92 323.541-260.267 402.773z" />
<glyph unicode="&#xe903;" d="M512-21.333l-384 256v597.333h768v-601.6l-384-251.733z" />
<glyph unicode="&#xe904;" d="M490.667 618.667c0.038 70.664 57.331 127.933 128 127.933 70.692 0 128-57.308 128-128 0-55.398-35.193-102.577-84.442-120.398l-0.892-0.282v-135.253c0-106.039-85.961-192-192-192s-192 85.961-192 192v0 213.333l213.333-213.333h-128c0-58.91 47.756-106.667 106.667-106.667s106.667 47.756 106.667 106.667v0 135.253c-50.142 18.117-85.333 65.303-85.333 120.71 0 0.013 0 0.026 0 0.039v-0.002zM618.667 661.333c-23.564 0-42.667-19.103-42.667-42.667s19.103-42.667 42.667-42.667v0c23.564 0 42.667 19.103 42.667 42.667s-19.103 42.667-42.667 42.667v0z" />
<glyph unicode="&#xe905;" glyph-name="apple" d="M678.144 874.667c5.973-51.712-15.573-102.613-47.104-140.075-32.853-36.864-85.504-65.024-136.704-61.397-6.699 49.707 19.243 102.613 48.299 134.869 32.853 36.693 89.899 64.725 135.509 66.603zM841.941 596.949c-6.059-3.413-100.437-57.173-99.413-166.485 1.195-132.352 121.899-176.085 123.307-176.555-0.683-3.072-18.901-63.147-64.085-124.075-37.803-53.675-77.44-106.155-140.288-107.093-29.867-0.683-50.091 7.509-71.125 16-21.931 8.875-44.8 18.133-80.597 18.133-37.888 0-61.781-9.557-84.821-18.773-19.925-7.936-39.168-15.659-66.347-16.725-59.861-2.133-105.643 57.301-144.811 110.507-78.208 108.544-139.136 306.048-57.472 440.405 39.595 65.92 111.787 108.373 188.928 109.483 33.963 0.683 66.56-11.776 95.147-22.656 21.845-8.363 41.344-15.787 57.301-15.787 14.037 0 32.981 7.125 55.083 15.445 34.816 13.141 77.355 29.184 120.747 24.875 29.653-0.853 114.133-11.093 168.576-86.613l-0.128-0.085z" />
<glyph unicode="&#xe906;" d="M512 192c188.513 0 341.333 152.82 341.333 341.333s-152.82 341.333-341.333 341.333v0-341.333l-241.365-241.365c61.607-61.759 146.797-99.968 240.911-99.968 0.16 0 0.319 0 0.479 0h-0.025z" />
<glyph unicode="&#xe907;" d="M512 533.333l-241.365-241.365c-61.773 61.77-99.98 147.106-99.98 241.365 0 188.513 152.82 341.333 341.333 341.333 0.004 0 0.009 0 0.013 0h-0.001v-341.333zM554.667 106.667h298.667v-85.333h-298.667zM170.667 106.667h298.667v-85.333h-298.667z" />
<glyph unicode="&#xe908;" d="M896 832h-533.333l-234.667-234.667v-533.333h768v768z" />
<glyph unicode="&#xe909;" d="M128 597.333h234.667v234.667l-234.667-234.667z" />
<glyph unicode="&#xe90a;" d="M650.667 714.667l128-128-416-416h-128v128l416 416z" />
<glyph unicode="&#xe90b;" d="M808.843 616.832l-30.176-30.165-127.84 127.84 30.165 30.176 127.861-127.851zM234.667 256v-85.333h85.333l-85.333 85.333zM576 234.667l64-64 64 64-64 64-64-64zM192 448l32-32 32 32-32 32-32-32zM330.667-10.667l32-32 32 32-32 32-32-32z" />
<glyph unicode="&#xe90c;" glyph-name="buy-crypto-history" d="M414.165 416.896h192v85.333h-192v-85.333zM414.165 246.229h192v85.333h-192v-85.333zM576 819.2h-332.8v-746.667h533.333v550.4l-200.533 196.267zM691.2 157.867h-362.667v576h213.333v-149.333h149.333v-426.667z" />
<glyph unicode="&#xe90d;" glyph-name="buycryptohistory-header" d="M384 384l64-64-64-64-64 64 64 64zM343.979 616.021c20.543 146.725 145.218 258.413 295.979 258.413 164.876 0 298.552-133.58 298.709-298.419v-0.015c0-151.381-112.64-276.48-258.645-296.021-20.543-146.725-145.218-258.413-295.979-258.413-164.876 0-298.552 133.58-298.709 298.419v0.015c0 151.381 112.64 276.48 258.645 296.021zM640 789.333c0.055 0 0.12 0 0.186 0 117.821 0 213.333-95.513 213.333-213.333 0-104.052-74.494-190.706-173.059-209.537l-1.334-0.212c-20.701 128.255-120.62 228.173-247.158 248.646l-1.717 0.229c19.153 99.803 105.762 174.19 209.747 174.208h0.002zM384 533.333c117.821 0 213.333-95.513 213.333-213.333s-95.513-213.333-213.333-213.333v0c-117.821 0-213.333 95.513-213.333 213.333s95.513 213.333 213.333 213.333v0z" />
<glyph unicode="&#xe90e;" glyph-name="check" d="M874.667 643.413l-473.173-472.747-273.493 273.493 60.16 60.587 213.333-213.333 412.587 412.587 60.587-60.587z" />
<glyph unicode="&#xe90f;" d="M512 960c282.77 0 512-229.23 512-512s-229.23-512-512-512c-282.77 0-512 229.23-512 512s229.23 512 512 512z" />
<glyph unicode="&#xe910;" d="M768 248.512l-56.512-56.192-199.808 199.488-199.168-199.808-56.192 56.512 199.168 199.488-199.488 199.488 56.512 56.192 199.168-199.488 199.808 199.808 55.872-56.512-199.168-199.488 199.808-199.488z" />
<glyph unicode="&#xe911;" glyph-name="coinmarketcap" d="M795.947 373.205c-13.611-8.661-29.44-9.515-41.685-2.603-15.36 8.661-24.149 28.544-24.149 56.661v83.456c0 40.619-16.213 69.163-43.435 76.971-46.080 13.397-80.768-42.411-93.483-63.147l-81.195-129.707v158.635c-0.853 36.309-13.184 58.368-35.968 64.853-14.933 4.352-37.76 2.603-59.733-30.293l-181.632-287.915c-23.202 42.828-36.859 93.755-36.907 147.868v0.015c0 173.397 140.885 314.368 314.24 314.368s314.24-140.971 314.24-314.368v-1.707c1.28-33.749-9.685-60.16-30.293-73.088zM896 448v1.707c-1.28 211.029-172.928 382.293-384 382.293-211.968 0-384-172.117-384-384s172.032-384 384-384c0.161 0 0.353 0 0.544 0 100.791 0 192.476 38.983 260.802 102.695l-0.226-0.209c6.006 6.259 9.704 14.772 9.704 24.149 0 19.275-15.626 34.901-34.901 34.901-8.25 0-15.831-2.862-21.805-7.648l0.069 0.053-0.427-0.427c-55.891-51.981-131.070-83.883-213.701-83.883-0.021 0-0.042 0-0.062 0h0.003c-92.587 0-176 40.619-233.899 104.619l164.139 259.499v-119.808c0-57.515 22.784-76.117 41.685-81.28 18.859-5.632 47.787-1.707 78.507 47.104l90.027 144c3.029 4.779 5.675 8.661 7.893 12.117v-72.619c0-53.632 21.931-96.427 59.648-117.632 34.261-19.029 77.227-17.323 112.384 4.309 43.008 26.368 65.749 75.264 63.616 134.059z" />
<glyph unicode="&#xe912;" glyph-name="convert-history" d="M157.867 307.2c4.267-4.267 4.267-12.8 8.533-17.067-4.267 4.267-8.533 8.533-8.533 17.067zM870.4 456.533c0-204.8-166.4-375.467-375.467-375.467-132.267 0-256 72.533-324.267 187.733-4.267 8.533-8.533 12.8-12.8 21.333 4.267 4.267 0 8.533 0 17.067-8.533 17.067-12.8 34.133-17.067 51.2l81.067 21.333 12.8-38.4c4.267-8.533 8.533-17.067 8.533-21.333 46.933-93.867 145.067-153.6 256-153.6 157.867 0 290.133 128 290.133 290.133 0 157.867-128 290.133-290.133 290.133v85.333c204.8-4.267 371.2-170.667 371.2-375.467zM128 452.267c0 34.133 4.267 64 12.8 98.133l81.067-21.333c-4.267-25.6-8.533-46.933-8.533-72.533l-85.333-4.267zM247.467 597.333l-72.533 42.667c17.067 29.867 34.133 55.467 59.733 76.8l59.733-59.733c-17.067-17.067-34.133-38.4-46.933-59.733zM354.133 704l-42.667 72.533c29.867 17.067 59.733 29.867 89.6 38.4l21.333-81.067c-21.333-8.533-46.933-17.067-68.267-29.867zM469.333 213.333v51.2c-55.467 4.267-93.867 25.6-119.467 55.467l51.2 46.933c21.333-21.333 46.933-38.4 76.8-42.667v98.133c-81.067 17.067-115.2 51.2-115.2 106.667s38.4 93.867 106.667 102.4v55.467h64v-51.2c42.667-4.267 76.8-21.333 98.133-51.2l-46.933-42.667c-12.8 12.8-29.867 25.6-55.467 34.133v-89.6c76.8-17.067 115.2-46.933 115.2-106.667 0-55.467-34.133-98.133-106.667-110.933v-51.2h-68.267v-4.267zM477.867 494.933v81.067c-29.867-4.267-38.4-21.333-38.4-42.667s12.8-34.133 38.4-38.4zM524.8 413.867v-85.333c25.6 8.533 38.4 25.6 38.4 46.933 0 12.8-4.267 29.867-38.4 38.4z" />
<glyph unicode="&#xe913;" glyph-name="convert-history-header" d="M640 746.667v85.333h256v-256h-85.333v170.667h-170.667zM384 64v85.333h-170.667v170.667h-85.333v-256h256zM512 512l-64-64 64-64 64 64-64 64zM768 448c0-141.385-114.615-256-256-256s-256 114.615-256 256v0c0 141.385 114.615 256 256 256s256-114.615 256-256v0zM682.667 448c0-94.257-76.41-170.667-170.667-170.667s-170.667 76.41-170.667 170.667v0c0 94.257 76.41 170.667 170.667 170.667s170.667-76.41 170.667-170.667v0z" />
<glyph unicode="&#xe914;" glyph-name="dashboard" d="M512 461.952c81.664 0 147.84 63.744 147.84 142.379 0 78.592-66.176 142.336-147.84 142.336s-147.84-63.744-147.84-142.336c0-78.635 66.176-142.379 147.84-142.379zM643.797 404.992h-263.637c-92.203 0-166.4-71.381-166.869-160.213v-129.28h597.333v129.28c-0.512 88.832-74.667 160.213-166.869 160.213zM710.443 211.968h-396.885v32.853c0.512 35.2 30.080 63.659 66.645 63.659h263.595c36.565 0 66.133-28.459 66.645-63.659v-32.853z" />
<glyph unicode="&#xe915;" glyph-name="dashboard-header" d="M512 490.667c106.039 0 192 85.961 192 192s-85.961 192-192 192v0c-106.039 0-192-85.961-192-192s85.961-192 192-192v0zM618.667 682.667c0-58.91-47.756-106.667-106.667-106.667s-106.667 47.756-106.667 106.667v0c0 58.91 47.756 106.667 106.667 106.667s106.667-47.756 106.667-106.667v0zM128 234.667c0 94.257 76.41 170.667 170.667 170.667v0h426.667c94.257 0 170.667-76.41 170.667-170.667v0-170.667h-768v170.667zM810.667 234.667v-85.333h-597.333v85.333c0 47.128 38.205 85.333 85.333 85.333v0h426.667c47.128 0 85.333-38.205 85.333-85.333v0z" />
<glyph unicode="&#xe916;" d="M213.333-21.333h597.333v938.667h-597.333z" />
<glyph unicode="&#xe917;" d="M213.333 64h597.333v-85.333h-597.333zM213.333 917.333h597.333v-85.333h-597.333z" />
<glyph unicode="&#xe918;" glyph-name="discord" d="M592.469 316.715c-17.195-17.195-54.059-23.339-80.256-23.339-26.24 0-63.104 6.144-80.299 23.339-1.879 1.893-4.483 3.066-7.36 3.066s-5.481-1.172-7.359-3.065l-0.001-0.001c-1.893-1.879-3.066-4.483-3.066-7.36s1.172-5.481 3.065-7.359l0.001-0.001c27.435-27.051 79.445-29.099 95.019-29.099s67.584 2.048 95.019 29.483c1.906 1.881 3.087 4.493 3.087 7.381s-1.181 5.5-3.086 7.38l-0.001 0.001c-1.895 1.683-4.404 2.711-7.154 2.711-2.969 0-5.658-1.199-7.609-3.138l0.001 0.001zM464.299 408.064c-0.049 22.146-18 40.082-40.147 40.107h-0.002c-22.149-0.024-40.101-17.961-40.149-40.102v-0.005c0-22.101 18.005-40.107 40.107-40.107 22.187 0 40.192 18.005 40.192 40.107zM512.213 832c-212.195 0-384.213-172.018-384.213-384.213s172.018-384.213 384.213-384.213v0c0.064 0 0.138 0 0.213 0 212.077 0 384 171.923 384 384 0 0.075 0 0.15 0 0.225v-0.012c-0.427 212.181-172.032 384.213-384.213 384.213zM735.019 396.587c0.853-5.111 1.237-11.051 1.237-16.768 0-86.443-100.352-156.075-224.043-156.075-123.733 0-224.043 69.632-224.043 156.075 0 5.717 0.427 11.435 1.195 16.768-19.689 8.845-33.153 28.282-33.153 50.864 0 0.118 0 0.236 0.001 0.354v-0.018c0.050 30.996 25.189 56.105 56.192 56.105 15.071 0 28.756-5.933 38.847-15.591l-0.021 0.020c38.912 28.288 92.587 45.909 152.363 47.531 0 0.853 28.288 133.973 28.288 133.973 0 2.432 1.621 4.907 3.669 6.101 2.048 1.664 4.907 2.048 7.765 1.664l93.013-20.053c6.636 13.286 20.057 22.293 35.601 22.485h0.026c22.101 0 40.107-17.579 40.107-40.107s-18.005-40.149-40.107-40.149c-0.022 0-0.048 0-0.074 0-21.359 0-38.777 16.877-39.646 38.023l-0.003 0.079-83.584 18.005-25.387-120.021c58.965-2.048 111.787-20.053 149.931-47.488 10.074 9.88 23.888 15.978 39.126 15.978 30.869 0 55.893-25.024 55.893-55.893 0-0.082 0-0.165-0.001-0.247v0.013c0-23.339-13.952-42.624-33.195-51.627zM600.277 447.787c-22.149-0.024-40.101-17.961-40.149-40.102v-0.005c0-22.144 18.005-40.149 40.107-40.149 22.187 0 40.192 18.005 40.192 40.107-0.331 22.039-18.11 39.818-40.118 40.149h-0.031z" />
<glyph unicode="&#xe919;" glyph-name="download" d="M554.667 874.667v-519.339l195.669 195.669 60.331-60.331-298.667-298.667-298.667 298.667 60.331 60.331 195.669-195.669v519.339h85.333zM896 277.333h-85.333v-170.667h-597.333v170.667h-85.333v-256h768v256z" />
<glyph unicode="&#xe91a;" d="M85.333 106.667h853.333v640h-853.333z" />
<glyph unicode="&#xe91b;" d="M512 234.667l426.667 426.667v128h-853.333v-128l426.667-426.667z" />
<glyph unicode="&#xe91c;" d="M938.667 448c0-235.637-191.029-426.667-426.667-426.667s-426.667 191.029-426.667 426.667 191.029 426.667 426.667 426.667 426.667-191.029 426.667-426.667z" />
<glyph unicode="&#xe91d;" d="M512 757.333c170.837 0 309.333-138.496 309.333-309.333s-138.496-309.333-309.333-309.333-309.333 138.496-309.333 309.333 138.496 309.333 309.333 309.333z" />
<glyph unicode="&#xe91e;" d="M480 256h64v64h-64v-64zM544 384v256h-64v-256h64z" />
<glyph unicode="&#xe91f;" glyph-name="facebook" d="M896 445.312c0-192.512-140.501-352.427-324.011-381.739v270.080h89.728l16.768 111.701h-106.069v72.533c0 30.549 14.763 60.629 62.293 60.629h48.725v94.763s-44.245 7.424-86.016 7.424c-87.68 0-145.408-53.589-145.408-150.059v-85.111h-97.493v-111.701h97.493v-270.037c-184.893 31.205-323.981 190.114-324.011 381.513v0.003c0 213.547 172.032 386.688 384.213 386.688s383.787-173.141 383.787-386.688z" />
<glyph unicode="&#xe920;" glyph-name="filter" d="M128 832v-192l230.4-234.667v-298.667h140.8l136.533 136.533v162.133l234.667 234.667v192h-742.4zM785.067 674.133l-234.667-234.667v-162.133l-85.333-85.333h-21.333v247.467l-230.4 234.667v72.533h576v-72.533h-4.267z" />
<glyph unicode="&#xe921;" glyph-name="google-play" d="M136.363 71.595l373.035 372.352-373.035 373.035c-9.173-14.805-15.531-38.827-15.531-73.472v-598.443c0-34.603 6.357-58.624 15.531-73.472zM666.88 286.421l-122.197 122.88-363.093-363.819h3.541c31.061 0 57.899 11.307 100.992 34.603l380.8 206.336zM712.704 577.493l-132.821-133.547 132.821-132.821 80.555 43.819c29.653 16.213 74.88 45.909 74.88 89.003 0 43.819-45.227 73.515-74.88 89.771l-80.555 43.776zM181.589 843.179l363.093-363.861 122.24 122.88-380.8 206.336c-43.093 23.339-69.931 34.645-100.992 34.645h-3.541z" />
<glyph unicode="&#xe922;" glyph-name="instagram" d="M512 762.889c102.699 0 114.56-0.427 155.349-2.219 37.291-1.707 57.941-7.893 71.083-13.141 18.005-7.040 30.72-15.36 44.373-28.544 13.568-13.611 21.931-26.325 28.501-44.331 5.248-13.568 11.392-33.792 13.141-71.083 1.792-40.363 2.219-52.651 2.219-155.349s-0.427-114.56-2.219-155.349c-1.707-37.291-7.893-57.941-13.141-71.083-7.040-18.005-15.36-30.72-28.544-44.373-12.047-12.532-26.893-22.282-43.539-28.253l-0.792-0.248c-13.568-5.248-33.792-11.392-71.083-13.141-40.363-1.792-52.651-2.219-155.349-2.219s-114.56 0.427-155.349 2.219c-37.291 1.707-57.941 7.893-71.083 13.141-17.331 6.584-32.126 16.29-44.373 28.544v0c-12.534 12.046-22.284 26.892-28.254 43.539l-0.248 0.792c-5.248 13.568-11.392 33.792-13.141 71.083-1.792 40.363-2.219 52.651-2.219 155.349s0.427 114.56 2.219 155.349c1.707 37.291 7.893 57.941 13.141 71.083 7.040 18.005 15.36 30.72 28.544 44.373 12.045 12.535 26.892 22.285 43.539 28.254l0.791 0.248c13.568 5.248 33.792 11.392 71.083 13.141 40.789 1.792 52.651 2.219 155.349 2.219zM512 832c-104.448 0-117.163-0.427-158.421-2.176-40.832-2.219-68.907-8.363-93.013-18.005-26.683-10.051-49.411-25.152-68.011-44.287l-0.042-0.043c-19.174-18.631-34.274-41.344-43.91-66.746l-0.421-1.264c-9.643-24.149-15.787-52.224-18.005-93.013-1.707-41.344-2.176-54.059-2.176-158.464s0.427-117.163 2.176-158.421c1.792-40.832 8.363-68.907 18.005-93.013 9.643-25.472 22.827-46.549 44.331-68.053s42.581-34.688 68.011-44.331c24.576-9.643 52.224-15.787 93.013-18.005 40.832-1.707 54.016-2.176 158.464-2.176s117.163 0.427 158.421 2.176c40.832 1.792 68.907 8.363 93.013 18.005 26.683 10.051 49.411 25.152 68.011 44.287l0.042 0.043c19.174 18.631 34.274 41.344 43.91 66.746l0.421 1.264c9.643 24.576 15.787 52.224 18.005 93.013 1.707 40.832 2.176 54.016 2.176 158.464s-0.427 117.163-2.176 158.421c-1.792 40.832-8.363 68.907-18.005 93.013-10.053 26.683-25.154 49.41-44.287 68.011l-0.043 0.042c-18.631 19.174-41.344 34.274-66.746 43.91l-1.264 0.421c-24.576 9.643-52.224 15.787-93.013 18.005-41.344 1.707-54.059 2.176-158.464 2.176zM512 645.035c-108.819 0-197.035-88.215-197.035-197.035s88.215-197.035 197.035-197.035v0c108.819 0 197.035 88.215 197.035 197.035s-88.215 197.035-197.035 197.035v0zM512 319.872c-70.724 0.097-128.031 57.404-128.128 128.119v0.009c0.097 70.724 57.404 128.031 128.119 128.128h0.009c70.724-0.097 128.031-57.404 128.128-128.119v-0.009c-0.097-70.724-57.404-128.031-128.119-128.128h-0.009zM716.928 606.848c25.449 0 46.080 20.631 46.080 46.080s-20.631 46.080-46.080 46.080v0c-25.449 0-46.080-20.631-46.080-46.080s20.631-46.080 46.080-46.080v0z" />
<glyph unicode="&#xe923;" glyph-name="language" d="M512 874.667c235.648 0 426.667-191.019 426.667-426.667s-191.019-426.667-426.667-426.667-426.667 191.019-426.667 426.667 191.019 426.667 426.667 426.667zM512.043 106.667c0.299 0 1.28 0.085 3.328 1.024 2.56 1.152 6.997 3.797 12.928 9.387 12.288 11.52 27.221 32.213 41.643 64.256 24.917 55.339 43.221 133.461 47.701 224h-211.285c4.48-90.539 22.784-168.661 47.701-224 14.421-32 29.355-52.736 41.643-64.299 5.931-5.547 10.368-8.192 12.928-9.387 2.133-0.939 3.072-0.981 3.328-0.981h0.043zM383.061 131.84c-34.304 69.12-57.301 165.376-62.123 273.493h-147.627c16.152-124.382 97.17-226.61 207.492-272.658l2.258-0.836zM173.312 490.667h147.627c4.821 108.117 27.819 204.373 62.123 273.493-112.585-46.877-193.606-149.108-209.567-271.775l-0.183-1.718zM512.085 789.333c0.213 0 1.152-0.043 3.285-1.024 2.56-1.152 6.997-3.797 12.928-9.387 12.288-11.52 27.221-32.213 41.643-64.256 24.917-55.339 43.221-133.461 47.701-224h-211.285c4.48 90.539 22.784 168.661 47.701 224 14.421 32 29.355 52.736 41.643 64.299 5.931 5.547 10.368 8.192 12.928 9.387 0.988 0.537 2.151 0.89 3.386 0.98l0.028 0.002zM850.688 405.333c-16.143-124.385-97.165-226.617-207.491-272.658l-2.258-0.836c34.304 69.12 57.301 165.376 62.123 273.493h147.627zM850.688 490.667c-16.143 124.385-97.165 226.617-207.491 272.658l-2.258 0.836c34.304-69.12 57.301-165.376 62.123-273.493h147.627z" />
<glyph unicode="&#xe924;" d="M981.333 704v-512h-938.667v512h938.667zM896 618.667h-85.333v-341.333h85.333v341.333z" />
<glyph unicode="&#xe925;" d="M277.333 448c0 47.128-38.205 85.333-85.333 85.333s-85.333-38.205-85.333-85.333v0c0-47.128 38.205-85.333 85.333-85.333s85.333 38.205 85.333 85.333v0z" />
<glyph unicode="&#xe926;" d="M512 448c0 47.128-38.205 85.333-85.333 85.333s-85.333-38.205-85.333-85.333c0-47.128 38.205-85.333 85.333-85.333s85.333 38.205 85.333 85.333z" />
<glyph unicode="&#xe927;" d="M746.667 448c0 47.128-38.205 85.333-85.333 85.333s-85.333-38.205-85.333-85.333v0c0-47.128 38.205-85.333 85.333-85.333s85.333 38.205 85.333 85.333v0z" />
<glyph unicode="&#xe928;" glyph-name="logout" d="M597.333 21.333v85.333h-384v682.667h384v85.333h-469.333v-853.333h469.333zM682.667 661.333l-60.331-60.331 110.336-110.336h-434.005v-85.333h434.005l-110.336-110.336 60.331-60.331 213.333 213.333-213.333 213.333z" />
<glyph unicode="&#xe929;" glyph-name="note" d="M341.333 320h341.333v-85.333h-341.333v85.333zM170.667 874.667h401.664l281.003-281.003v-572.331h-682.667v853.333zM256 789.333v-682.667h512v384h-298.667v298.667h-213.333zM554.667 771.669v-195.669h195.669l-195.669 195.669z" />
<glyph unicode="&#xe92a;" d="M682.667 874.667h-405.333v-853.333h618.667v640l-213.333 213.333zM384 565.333h405.333v-42.667h-405.333v42.667zM384 469.333h405.333v-42.667h-405.333v42.667zM789.333 373.333h-405.333v-42.667h405.333v42.667z" />
<glyph unicode="&#xe92b;" d="M661.333 202.667l42.667 42.667 42.667-42.667-42.667-42.667-42.667 42.667z" />
<glyph unicode="&#xe92c;" d="M917.333 426.667l32 32 32-32-32-32-32 32zM501.333 736l32 32 32-32-32-32-32 32zM896 661.333h-213.333v213.333l213.333-213.333z" />
<glyph unicode="&#xe92d;" d="M44.491 179.509l154.667 154.667 60.341-60.352-154.667-154.667-60.341 60.341z" />
<glyph unicode="&#xe92e;" d="M544 448c0-94.261-76.405-170.667-170.667-170.667s-170.667 76.405-170.667 170.667c0 94.261 76.405 170.667 170.667 170.667s170.667-76.405 170.667-170.667zM586.667 448c0 117.824-95.509 213.333-213.333 213.333s-213.333-95.509-213.333-213.333 95.509-213.333 213.333-213.333 213.333 95.509 213.333 213.333z" />
<glyph unicode="&#xe92f;" glyph-name="p2p-order" d="M358.4 465.067c-64.853 0-119.467 54.613-119.467 119.467s54.613 119.467 119.467 119.467c64.853 0 119.467-54.613 119.467-119.467s-54.613-119.467-119.467-119.467zM358.4 635.733c-27.307 0-51.2-23.893-51.2-51.2s23.893-51.2 51.2-51.2c27.307 0 51.2 23.893 51.2 51.2s-23.893 51.2-51.2 51.2zM733.867 396.8h-443.733c-64.853 0-119.467-54.613-119.467-119.467v-119.467h682.667v119.467c0 64.853-54.613 119.467-119.467 119.467zM525.653 226.133h-286.72v51.2c0 27.307 23.893 51.2 51.2 51.2h184.32c27.307 0 51.2-23.893 51.2-51.2v-51.2zM665.6 465.067c65.98 0 119.467 53.487 119.467 119.467s-53.487 119.467-119.467 119.467v0c-65.98 0-119.467-53.487-119.467-119.467s53.487-119.467 119.467-119.467v0z" />
<glyph unicode="&#xe930;" glyph-name="p2p-order-header" d="M277.333 661.333c23.564 0 42.667 19.103 42.667 42.667s-19.103 42.667-42.667 42.667v0c-23.564 0-42.667-19.103-42.667-42.667s19.103-42.667 42.667-42.667v0zM277.333 576c70.692 0 128 57.308 128 128s-57.308 128-128 128v0c-70.692 0-128-57.308-128-128s57.308-128 128-128v0zM746.667 490.667c23.564 0 42.667 19.103 42.667 42.667s-19.103 42.667-42.667 42.667v0c-23.564 0-42.667-19.103-42.667-42.667s19.103-42.667 42.667-42.667v0zM746.667 405.333c70.692 0 128 57.308 128 128s-57.308 128-128 128v0c-70.692 0-128-57.308-128-128s57.308-128 128-128v0zM213.333 448c-23.564 0-42.667-19.103-42.667-42.667v0-42.667h213.333v42.667c0 23.564-19.103 42.667-42.667 42.667v0h-128zM85.333 405.333c0 70.692 57.308 128 128 128v0h128c70.692 0 128-57.308 128-128v0-128h-384v128zM682.667 277.333c-23.564 0-42.667-19.103-42.667-42.667v0-42.667h213.333v42.667c0 23.564-19.103 42.667-42.667 42.667v0h-128zM554.667 234.667c0 70.692 57.308 128 128 128v0h128c70.692 0 128-57.308 128-128v0-128h-384v128zM554.667 789.333v85.333h384v-170.667h-85.333v85.333h-298.667zM469.333 21.333v85.333h-298.667v85.333h-85.333v-170.667h384z" />
<glyph unicode="&#xe931;" d="M725.333 874.667h-512v-853.333h512v853.333z" />
<glyph unicode="&#xe932;" d="M213.333 874.667h512v-85.333h-512v85.333zM213.333 106.667h512v-85.333h-512v85.333zM853.333 362.624v298.667h-554.667v-298.667h128v-170.667l170.667 170.667h256z" />
<glyph unicode="&#xe933;" glyph-name="search" d="M128 491.435c0-164.053 133.845-297.899 297.899-297.899 64.768 0 129.536 21.589 177.024 60.416l189.952-189.952 60.459 60.459-189.952 189.952c34.56 47.488 60.416 112.256 60.416 177.024 0 82.005-34.56 155.435-86.315 211.541-51.84 51.797-129.536 86.357-211.584 86.357-164.053 0-297.899-133.845-297.899-297.899zM572.715 642.56c37.326-37.228 60.42-88.71 60.42-145.586 0-0.432-0.001-0.864-0.004-1.296v0.066c0-56.107-21.589-107.947-60.416-146.773-37.232-37.351-88.731-60.462-145.628-60.462-0.403 0-0.805 0.001-1.207 0.003h0.062c-0.353-0.002-0.77-0.003-1.188-0.003-56.897 0-108.397 23.111-145.623 60.457l-0.005 0.005c-43.179 34.56-64.768 86.315-64.768 142.464 0 56.107 21.589 107.947 60.416 146.773 38.869 43.179 95.019 64.768 151.125 64.768 56.149 0 107.947-21.589 146.773-60.416z" />
<glyph unicode="&#xe934;" glyph-name="security" d="M170.667 746.667h682.667v-408.747l-341.333-195.072-341.333 195.072v408.747zM256 661.333v-273.92l256-146.261 256 146.261v273.92h-512z" />
<glyph unicode="&#xe935;" d="M128.011 234.208l384-255.541v896h-384v-640.459z" />
<glyph unicode="&#xe936;" d="M512.011 874.667v-896l384 256v640h-384z" />
<glyph unicode="&#xe937;" d="M789.333 270.219l-277.333-184.885-277.333 184.885v497.781h554.667v-497.781z" />
<glyph unicode="&#xe938;" d="M938.667 181.333c0 88.366-71.634 160-160 160s-160-71.634-160-160c0-88.366 71.634-160 160-160s160 71.634 160 160z" />
<glyph unicode="&#xe939;" d="M756.053 181.301l-56.576 56.576 22.635 22.613 56.555-56.544 56.565 56.565 22.624-22.624-56.565-56.576 56.565-56.565-22.613-22.624-56.576 56.555-56.565-56.565-22.635 22.613 56.565 56.576z" />
<glyph unicode="&#xe93a;" d="M362.667 469.333l149.333-149.333 149.333 149.333-149.333 149.333-149.333-149.333z" />
<glyph unicode="&#xe93b;" d="M576 725.333l149.333 149.333 213.333-213.333-149.333-149.333-213.333 213.333z" />
<glyph unicode="&#xe93c;" d="M206.848 369.152v0c-28.958-28.958-46.869-68.963-46.869-113.152 0-88.377 71.644-160.021 160.021-160.021 44.189 0 84.194 17.911 113.152 46.869v0c28.958 28.958 46.869 68.963 46.869 113.152 0 88.377-71.644 160.021-160.021 160.021-44.189 0-84.194-17.911-113.152-46.869zM267.221 308.821c13.596 14.057 32.627 22.784 53.696 22.784 41.237 0 74.667-33.429 74.667-74.667 0-21.080-8.736-40.12-22.784-53.697l-0.021-0.020c-13.356-12.684-31.455-20.485-51.376-20.485-41.237 0-74.667 33.429-74.667 74.667 0 19.921 7.801 38.020 20.516 51.408l-0.031-0.032z" />
<glyph unicode="&#xe93d;" d="M149.333 426.667l0.027 0.028c-42.977-43.58-69.501-103.427-69.501-169.469 0-133.302 108.063-241.365 241.365-241.365 66.042 0 125.889 26.524 169.442 69.474l362.667 362.667-341.333 341.333-362.667-362.667zM206.848 369.152c28.958 28.958 68.963 46.869 113.152 46.869 88.377 0 160.021-71.644 160.021-160.021 0-44.189-17.911-84.194-46.869-113.152v0c-28.958-28.958-68.963-46.869-113.152-46.869-88.377 0-160.021 71.644-160.021 160.021 0 44.189 17.911 84.194 46.869 113.152v0z" />
<glyph unicode="&#xe93e;" glyph-name="security-menu" d="M512 661.333l-213.333-213.333 213.333-213.333 213.333 213.333-213.333 213.333zM604.672 448l-92.672-92.672-92.672 92.672 92.672 92.672 92.672-92.672zM128 234.667l384-256 384 251.733v601.6h-768v-597.333zM213.333 746.667v-466.347l299.093-199.339 298.24 195.499v470.187h-597.333z" />
<glyph unicode="&#xe93f;" glyph-name="spot-order" d="M259.968 580.736c-24.192 0-43.989 18.688-43.989 41.472 0 22.827 19.797 41.515 43.947 41.515h548.096v82.944h-548.053c-73.088 0-131.968-55.595-131.968-124.459v-348.416c0-68.864 58.923-124.459 131.968-124.459h636.032v431.403h-636.032zM808.021 232.277h-548.053c-24.192 0-43.989 18.688-43.989 41.515v231.040c14.080-4.565 29.013-7.040 43.947-7.040h548.096v-265.515zM676.053 423.552l-61.995-58.496 61.995-58.88 62.464 58.88-62.464 58.453z" />
<glyph unicode="&#xe940;" glyph-name="spot-order-header" d="M362.667 362.667l-64-64 64-64 64 64-64 64zM384 575.189v22.144c0 153.167 124.166 277.333 277.333 277.333s277.333-124.166 277.333-277.333c0-153.167-124.166-277.333-277.333-277.333v0h-22.144c0.523-6.384 0.821-13.819 0.821-21.323 0-153.167-124.166-277.333-277.333-277.333s-277.333 124.166-277.333 277.333c0 153.167 124.166 277.333 277.333 277.333 7.505 0 14.939-0.298 22.293-0.883l-0.97 0.062zM469.333 597.333c0 106.039 85.961 192 192 192s192-85.961 192-192c0-106.039-85.961-192-192-192v0h-42.581c-28.825 67.742-81.677 120.593-147.602 148.729l-1.817 0.689v42.581zM362.667 490.667c-106.039 0-192-85.961-192-192s85.961-192 192-192v0c106.039 0 192 85.961 192 192s-85.961 192-192 192v0zM341.333 832v-85.333h-128v-128h-85.333v213.333h213.333zM682.667 149.333h128v128h85.333v-213.333h-213.333v85.333z" />
<glyph unicode="&#xe941;" d="M509.824 960c0.641 0.003 1.4 0.005 2.159 0.005 282.77 0 512-229.23 512-512s-229.23-512-512-512c-282.77 0-512 229.23-512 512 0 140.847 56.872 268.411 148.905 360.98l-0.024-0.024c91.994 93.226 219.726 150.989 360.95 151.040h0.010z" />
<glyph unicode="&#xe942;" d="M423.936 256l-167.936 164.8 47.744 46.72 120.192-117.696 296.32 290.176 47.744-47.104-344.064-336.896z" />
<glyph unicode="&#xe943;" glyph-name="telegram" d="M512 832c-212.053 0-384-171.947-384-383.573 0-212.053 171.947-384.427 384-384.427s384 172.373 384 384.427c0 211.627-171.947 383.573-384 383.573zM701.141 590.891c-2.475-35.627-68.352-301.739-68.352-301.739s-4.096-15.531-18.432-15.957c-0.358-0.019-0.777-0.029-1.199-0.029-6.914 0-13.166 2.835-17.656 7.407l-0.004 0.004c-15.147 12.672-49.493 37.248-81.877 59.733-1.195-1.195-2.432-2.432-4.096-3.669-7.339-6.528-18.389-15.957-30.293-27.435-4.48-4.096-9.387-8.576-14.293-13.483l-0.427-0.427c-2.275-2.259-4.681-4.395-7.203-6.392l-0.178-0.136c-15.957-13.099-17.579-2.048-17.579 3.669l8.576 93.739v0.853l0.427 0.811c0.427 1.195 1.237 1.621 1.237 1.621s167.424 148.992 171.947 164.992c0.384 0.811-0.853 1.621-2.901 0.811-11.051-3.669-203.861-125.696-225.152-139.179-1.237-0.853-4.907-0.427-4.907-0.427l-93.739 30.72s-11.093 4.48-7.381 14.72c0.853 2.048 2.048 4.096 6.571 6.955 20.864 14.763 384 145.323 384 145.323s10.24 3.285 16.341 1.28c2.859-1.28 4.523-2.475 6.144-6.571 0.427-1.664 0.853-4.949 0.853-8.619 0-2.048-0.427-4.48-0.427-8.576z" />
<glyph unicode="&#xe944;" glyph-name="twitter" d="M369.451 149.333c289.707 0 448.299 246.016 448.299 459.221 0 6.827 0 13.653-0.427 20.907 31.041 23.121 57.164 50.779 77.925 82.284l0.752 1.215c-28.288-12.8-58.709-21.111-90.752-25.6 32.782 20.593 57.355 51.666 69.225 88.445l0.322 1.155c-30.421-18.773-64.128-32-100.352-39.253-28.256 31.724-69.212 51.611-114.813 51.627h-0.003c-87.040 0-157.781-72.491-157.781-161.579 0-12.8 1.664-24.747 4.181-36.693-130.731 6.4-246.869 71.211-324.693 168.832-13.366-23.27-21.249-51.162-21.249-80.895 0-0.181 0-0.361 0.001-0.541v0.028c0-55.893 27.904-105.344 69.973-134.315-26.308 0.918-50.718 8.244-71.966 20.453l0.755-0.4v-2.133c0-78.080 54.528-143.701 126.123-158.208-12.073-3.525-25.942-5.553-40.285-5.553-0.477 0-0.954 0.002-1.43 0.007l0.073-0.001c-9.984 0-19.968 0.853-29.525 2.987 19.968-64.384 78.251-110.848 147.328-112.128-52.9-43.047-121.111-69.12-195.41-69.12-0.076 0-0.152 0-0.228 0h0.012c-12.501 0-25.387 0.427-37.461 2.133 67.793-45.656 151.296-72.875 241.157-72.875 0.088 0 0.176 0 0.265 0h-0.014z" />
<glyph unicode="&#xe945;" glyph-name="usd-header" d="M537.131 479.957v80.213c19.694-4.615 36.486-14.999 48.976-29.249l0.091-0.106 1.323-1.365 48.043 43.691-1.024 1.365c-22.806 25.543-54.836 42.432-90.813 45.407l-0.494 0.033v47.445h-60.587v-47.445c-63.403-7.851-99.499-43.008-99.499-96.981 0-51.541 34.389-83.968 105.941-98.987v-87.467c-27.135 4.579-50.545 17.998-67.701 37.138l-0.097 0.11-1.365 1.024-46.336-42.325-1.365-1.024 1.365-1.365c27.234-30.306 65.539-50.193 108.496-53.261l0.517-0.030v-46.379h60.629v48.469c27.43 1.832 51.71 13.994 69.242 32.588l0.048 0.052c17.499 18.555 28.314 43.581 28.501 71.131v0.037c0 50.56-32 80.597-103.893 97.28zM568.448 376.832c-0.074-18.956-13.315-34.798-31.048-38.86l-0.269-0.052v75.093c27.904-9.216 31.317-24.917 31.317-36.181zM489.088 490.88c-23.851 7.168-33.408 16.725-33.408 34.133 0 19.456 10.923 31.061 33.408 36.181v-70.315zM510.848 721.067c53.888 0 106.539-16.043 151.339-46.037 44.465-30.078 79.015-71.766 99.68-120.745l0.672-1.793c13.104-30.868 20.72-66.769 20.72-104.449 0-75.374-30.477-143.629-79.779-193.116l0.008 0.008c-49.279-49.371-117.407-79.914-192.668-79.914-37.598 0-73.416 7.623-105.992 21.407l1.786-0.671c-50.704 21.413-92.311 56.034-121.666 99.594l-0.617 0.971c-28.76 42.623-45.909 95.144-45.909 151.671 0 0.003 0 0.006 0 0.009v0c0.070 75.34 30.573 143.543 79.878 192.987l-0.006-0.006c49.243 49.389 117.316 79.979 192.534 80.085h0.020zM510.848 789.333c-70.556-0.001-136.092-21.489-190.423-58.279l1.197 0.764c-55.581-37.596-98.77-89.706-124.6-150.932l-0.84-2.242c-16.388-38.596-25.913-83.486-25.913-130.6 0-94.228 38.101-179.557 99.737-241.421l-0.010 0.010c61.544-61.773 146.689-99.996 240.761-99.996 47.053 0 91.873 9.563 132.622 26.851l-2.226-0.839c63.388 26.76 115.404 70.033 152.104 124.483l0.77 1.213c35.964 53.288 57.408 118.954 57.408 189.628 0 94.231-38.122 179.557-99.785 241.399l0.008-0.008c-61.596 61.717-146.737 99.914-240.801 99.968h-0.010z" />
<glyph unicode="&#xe946;" glyph-name="vk" d="M512 832c-212.077 0-384-171.923-384-384s171.923-384 384-384c212.077 0 384 171.923 384 384v0c0 212.053-172.373 384-384 384zM747.819 284.245h-55.68c-21.111 0-27.435 17.195-65.493 55.253-33.195 31.957-47.488 36.437-55.68 36.437-11.477 0-14.763-2.859-14.763-18.816v-50.347c0-13.525-4.48-21.717-40.107-21.717-58.965 0-124.459 35.627-170.709 102.357-69.589 97.451-88.448 171.093-88.448 185.856 0 8.192 2.901 15.573 18.859 15.573h56.491c13.909 0 19.627-6.144 24.96-21.717 27.435-79.787 73.685-149.419 92.544-149.419 6.955 0 10.24 3.285 10.24 21.291v81.877c-2.091 38.059-22.144 41.344-22.144 54.869 0 6.528 5.111 13.099 13.952 13.099h87.595c11.861 0 16.384-6.571 16.384-20.48v-110.933c0-11.904 4.907-16.384 8.576-16.384 6.955 0 13.099 4.48 26.197 17.195 40.107 45.013 68.779 114.219 68.779 114.219 3.669 8.192 10.24 15.531 24.576 15.531h55.68c16.768 0 20.48-8.576 16.768-20.48-6.955-32.299-74.923-128.085-74.923-128.939-6.144-9.813-8.192-13.909 0-24.96 6.144-8.192 25.387-24.96 38.485-40.107 23.765-27.008 42.197-49.92 47.104-65.493 4.48-15.573-3.285-23.765-19.243-23.765z" />
<glyph unicode="&#xe947;" glyph-name="wallet-direction" d="M640 576h-64v85.333h64c117.821 0 213.333-95.513 213.333-213.333s-95.513-213.333-213.333-213.333v0h-64v85.333h64c70.692 0 128 57.308 128 128s-57.308 128-128 128v0zM448 661.333v-85.333h-64c-70.692 0-128-57.308-128-128s57.308-128 128-128v0h64v-85.333h-64c-117.821 0-213.333 95.513-213.333 213.333s95.513 213.333 213.333 213.333v0h64zM384 490.667c-23.564 0-42.667-19.103-42.667-42.667s19.103-42.667 42.667-42.667v0h256c23.564 0 42.667 19.103 42.667 42.667s-19.103 42.667-42.667 42.667v0h-256z" />
<glyph unicode="&#xe948;" glyph-name="warning" d="M512.469 874.667h-0.469c-235.861 0-426.667-190.805-426.667-426.667 0-235.819 190.805-426.667 426.667-426.667 235.349 0 426.155 190.848 426.667 426.197 0.512 235.819-190.336 426.667-426.197 427.136zM555.051 150.016h-86.101v85.632h86.101v-85.632zM555.051 347.691h-86.101v398.763h86.101v-398.763z" />
<glyph unicode="&#xe949;" d="M853.333 832v-810.667h-682.667v810.667h682.667z" />
<glyph unicode="&#xe94a;" d="M682.667 832h-128v85.333h-85.333v-85.333h-128v-85.333h341.333v85.333zM277.248 384.341l170.667-171.093 298.667 298.325-60.587 60.587-238.080-238.165-110.507 110.507-60.16-60.16z" />
<glyph unicode="&#xe94b;" glyph-name="youtube" d="M880.085 624.299c-8.789 31.317-34.773 56.32-67.883 64.64-59.904 15.061-299.989 15.061-299.989 15.061s-240.512 0-300.416-15.061c-32.519-8.41-57.905-32.736-67.658-63.965l-0.182-0.675c-15.957-57.131-15.957-176.085-15.957-176.085s0-118.997 15.915-176.085c8.789-31.744 34.773-56.32 67.883-64.64 59.904-15.104 299.989-15.104 299.989-15.104s240.085 0 299.989 15.104c32.683 8.32 59.093 32.896 67.883 64.64 15.915 57.088 15.915 176.085 15.915 176.085s0.427 118.955-15.488 176.085zM433.451 339.925v216.149l200.704-107.861-200.704-108.288z" />
</font>
</defs>
</svg>
